<svg width="45" height="35" fill="none" xmlns="http://www.w3.org/2000/svg"><path d="M.075 22.326c.06.01 1.42.2 3.023.419l2.917.4.466.384c.257.211.514.433.574.493.853.869 2.456 1.604 4.242 1.953a15.07 15.07 0 005.585-.014c2.05-.412 3.717-1.274 4.53-2.35.727-.958.755-2.024.078-2.97-.92-1.292-2.928-2.242-5.49-2.594-.545-.077-.968-.105-.968-.07 0 .017-.434.032-.962.032-.937 0-1.494.038-2.167.144-1.702.27-3.446.887-4.337 1.54-.469.339-.98.916-1.198 1.352-.07.14-.113.172-.416.313l-.338.162-1.484.204-2.787.384c-.718.098-1.317.183-1.338.19-.018.003.014.017.07.028zm.458-10.092c.078.014 1.18.229 2.449.479 1.268.25 2.653.52 3.072.605l.765.148.215.324c.51.774 1.42 1.421 2.449 1.752 1.93.615 3.428.886 5.133.925.483.01.874.035.874.05 0 .045.166.038.687-.022 2.903-.334 5.2-1.478 5.986-2.97.36-.686.36-1.502 0-2.184-.662-1.264-2.445-2.305-4.76-2.78-1.677-.349-3.72-.373-5.436-.067-1.787.317-3.422 1.03-4.348 1.896a15.37 15.37 0 01-.708.616l-.423.352-2.995.412c-1.646.229-3.016.418-3.048.425-.028.008.01.022.088.04zM11.7 33.49c.306.68 1.599 1.235 3.368 1.447.704.084 2.12.084 2.8 0 .892-.113 1.646-.292 2.185-.518.215-.095.268-.102.476-.08.296.028 1.201-.04 1.744-.13 3.34-.557 6.659-2.847 7.438-5.13.176-.518.218-.88.148-1.296-.085-.489-.243-.795-.606-1.157-.578-.574-1.413-.89-2.555-.961-1.511-.091-3.15.253-4.83 1.017-2.999 1.358-5.032 3.797-4.676 5.595.032.144.042.274.032.288-.039.035-.712.264-1.075.363-1.42.383-3.044.492-4.246.285l-.253-.043v.106a.79.79 0 00.05.214zm.22-31.706c1.396-.246 3.359-.046 4.891.493.353.123.423.158.42.214l-.046.405c-.067.538.042 1.045.37 1.706.578 1.169 1.85 2.376 3.414 3.255 1.87 1.049 3.974 1.587 5.743 1.474 1.025-.066 1.853-.348 2.414-.82 2.06-1.734-.219-5.33-4.465-7.044-1.296-.52-2.53-.784-3.798-.802-.588-.01-.648-.018-.845-.098C19.154.197 17.91 0 16.477 0c-1.628 0-3.006.26-3.918.739-.532.281-.91.693-.91 1v.09l.272-.045zm13.073 16.33c.05.591.25 1.305.51 1.826.265.531.434.764.73 1.013.86.729 1.663 1.18 3.481 1.96.546.233 1.078.482 1.18.556.938.662 1.734 1.682 1.966 2.527.416 1.527 1.223 3.008 2.076 3.828.412.394.697.595 1.31.918.881.461 1.71.662 2.76.658a5.82 5.82 0 002.716-.636c1.018-.521 1.948-1.436 2.43-2.39.177-.352.554-1.287.624-1.551.085-.317.1-.965.032-1.285-.06-.27-.317-1.08-.458-1.435-.155-.384-.24-.542-.556-1.045-.973-1.531-1.434-2.615-1.656-3.889-.092-.541-.085-1.695.02-2.251.279-1.506.765-2.643 1.917-4.466.546-.862.733-1.277.878-1.938.077-.352.056-1.302-.04-1.739-.228-1.073-.661-1.945-1.33-2.68-1.445-1.591-3.602-2.235-5.811-1.739-1.117.253-2.357 1.017-3.076 1.893-.444.545-.51.683-.775 1.598-.324 1.115-.483 1.505-.839 2.061a5.569 5.569 0 01-1.56 1.584c-.476.316-.564.355-2.45 1.098-1.345.527-1.623.65-1.831.802-1.55 1.115-2.403 2.906-2.248 4.722z" fill="#2E5A14"/></svg>