<svg width="45" height="35" fill="none" xmlns="http://www.w3.org/2000/svg"><path d="M44.925 12.674c-.06-.01-1.42-.2-3.023-.419l-2.918-.4-.465-.384a13.174 13.174 0 01-.574-.493c-.853-.869-2.456-1.604-4.242-1.953a15.052 15.052 0 00-5.585.014c-2.05.412-3.717 1.274-4.53 2.35-.727.958-.755 2.024-.078 2.97.92 1.292 2.927 2.242 5.489 2.594.546.077.969.105.969.07 0-.017.433-.032.962-.032.937 0 1.494-.038 2.167-.144 1.701-.27 3.446-.887 4.337-1.54.469-.339.98-.916 1.198-1.352.07-.14.113-.172.416-.313l.338-.162 1.483-.204 2.787-.384a69.645 69.645 0 001.34-.19c.017-.003-.015-.017-.071-.028zm-.458 10.092c-.078-.014-1.18-.229-2.45-.479-1.268-.25-2.652-.52-3.072-.605l-.764-.148-.215-.323c-.511-.775-1.42-1.422-2.449-1.753-1.93-.615-3.428-.886-5.134-.925-.482-.01-.873-.035-.873-.05 0-.045-.166-.038-.687.022-2.904.334-5.2 1.478-5.987 2.97a2.349 2.349 0 000 2.184c.663 1.264 2.446 2.305 4.76 2.78 1.678.349 3.721.373 5.437.067 1.786-.317 3.421-1.03 4.348-1.896a15.5 15.5 0 01.708-.616l.423-.352 2.995-.412c1.645-.229 3.016-.419 3.048-.425.028-.008-.011-.022-.088-.04zM33.3 1.51C32.995.83 31.702.274 29.934.063c-.705-.084-2.122-.084-2.802 0-.891.113-1.645.292-2.184.518-.215.095-.268.102-.476.08-.296-.028-1.201.04-1.744.13-3.34.557-6.659 2.847-7.438 5.13-.176.518-.218.88-.148 1.296.085.489.243.795.606 1.157.578.574 1.413.89 2.555.961 1.511.091 3.15-.253 4.83-1.017 2.999-1.358 5.032-3.797 4.676-5.595-.032-.144-.042-.274-.032-.288.039-.035.712-.264 1.075-.363 1.42-.383 3.044-.492 4.245-.285l.254.043v-.106a.79.79 0 00-.05-.214zm-.22 31.706c-1.396.246-3.359.046-4.891-.493-.353-.123-.423-.158-.42-.214l.046-.405c.067-.538-.042-1.045-.37-1.706-.578-1.169-1.85-2.375-3.414-3.255-1.87-1.049-3.974-1.587-5.743-1.474-1.025.066-1.853.348-2.414.82-2.06 1.734.219 5.33 4.464 7.044 1.297.52 2.53.784 3.799.802.588.01.648.017.845.099.864.369 2.107.566 3.541.566 1.628 0 3.006-.26 3.918-.739.532-.281.91-.693.91-1v-.09l-.272.045zm-13.073-16.33a5.43 5.43 0 00-.51-1.826c-.265-.531-.434-.764-.73-1.014-.86-.728-1.663-1.178-3.481-1.96-.546-.232-1.078-.481-1.18-.555-.938-.662-1.734-1.682-1.966-2.527-.416-1.527-1.223-3.008-2.076-3.828-.412-.394-.697-.595-1.31-.918-.881-.461-1.71-.662-2.76-.658-.996 0-1.87.207-2.716.637-1.018.52-1.948 1.435-2.43 2.389C.67 6.978.293 7.914.222 8.177c-.084.317-.098.965-.031 1.285.06.27.317 1.08.458 1.435.155.384.24.542.556 1.045.973 1.531 1.435 2.615 1.656 3.889.092.541.085 1.695-.02 2.251-.279 1.506-.765 2.643-1.917 4.466-.547.862-.733 1.277-.878 1.938-.077.352-.056 1.302.04 1.739.228 1.073.661 1.945 1.33 2.68 1.445 1.591 3.602 2.235 5.811 1.739 1.117-.253 2.357-1.017 3.076-1.893.444-.545.51-.683.775-1.598.324-1.115.483-1.505.839-2.061a5.568 5.568 0 011.56-1.584c.476-.316.564-.355 2.45-1.098 1.345-.527 1.623-.65 1.831-.802 1.55-1.115 2.403-2.906 2.248-4.722z" fill="#2E5A14"/></svg>