<svg width="45" height="35" viewBox="0 0 45 35" fill="none" xmlns="http://www.w3.org/2000/svg">
<path d="M0.0750332 22.3259C0.134931 22.3364 1.49496 22.5264 3.0981 22.7446L6.01546 23.1457L6.48055 23.5293C6.73776 23.7404 6.99496 23.9621 7.05486 24.0219C7.90752 24.891 9.51066 25.6264 11.297 25.9747C13.0763 26.3195 15.1093 26.3125 16.8816 25.9606C18.9322 25.549 20.5988 24.6869 21.4127 23.6102C22.1385 22.6531 22.1667 21.587 21.4902 20.6404C20.5706 19.3491 18.5622 18.3991 16.0007 18.0472C15.4546 17.9698 15.0318 17.9416 15.0318 17.9768C15.0318 17.9944 14.5984 18.0085 14.0699 18.0085C13.1327 18.0085 12.576 18.0472 11.903 18.1528C10.2012 18.4237 8.45717 19.0395 7.56575 19.6939C7.09714 20.0317 6.58625 20.6088 6.3678 21.0451C6.29733 21.1858 6.25505 21.2175 5.95204 21.3583L5.6138 21.5201L4.13045 21.7242C3.31302 21.8368 2.0587 22.0092 1.34345 22.1077C0.624681 22.2062 0.0257058 22.2907 0.00456551 22.2977C-0.0130514 22.3013 0.018659 22.3153 0.0750332 22.3259Z" fill="#2E5A14"/>
<path d="M0.533258 12.2342C0.610772 12.2483 1.71359 12.4629 2.98201 12.7128C4.25043 12.9626 5.63512 13.2335 6.0544 13.318L6.81898 13.4657L7.0339 13.7895C7.5448 14.5636 8.45383 15.211 9.48266 15.5417C11.4135 16.1575 12.9109 16.4284 14.6162 16.4671C15.0989 16.4777 15.49 16.5023 15.49 16.5164C15.49 16.5622 15.6556 16.5551 16.1771 16.4953C19.0804 16.161 21.3776 15.0175 22.1633 13.5256C22.5227 12.8394 22.5227 12.0231 22.1633 11.3405C21.5009 10.0773 19.7181 9.03576 17.4032 8.56074C15.7261 8.2124 13.6825 8.18777 11.9666 8.49389C10.1803 8.81057 8.54544 9.52485 7.61879 10.3904C7.46376 10.5382 7.14313 10.8162 6.91059 11.0062L6.48778 11.3581L3.4929 11.7698C1.84748 11.9985 0.476884 12.1885 0.445173 12.1955C0.416986 12.2025 0.455743 12.2166 0.533258 12.2342Z" fill="#2E5A14"/>
<path d="M11.6992 33.4905C12.0057 34.1696 13.2988 34.7255 15.0675 34.9367C15.7722 35.0211 17.1886 35.0211 17.8686 34.9367C18.76 34.8241 19.514 34.6446 20.0531 34.4194C20.268 34.3244 20.3209 34.3174 20.5288 34.3385C20.8247 34.3666 21.7302 34.2998 22.2728 34.2083C25.613 33.6524 28.932 31.3617 29.7107 29.0781C29.8869 28.5609 29.9292 28.1985 29.8587 27.7833C29.7741 27.2942 29.6156 26.988 29.2527 26.6256C28.6748 26.0521 27.8398 25.7354 26.6982 25.665C25.1867 25.5735 23.5483 25.9184 21.8677 26.6819C18.8693 28.0401 16.8363 30.4785 17.1921 32.2766C17.2238 32.4208 17.2344 32.551 17.2238 32.5651C17.1851 32.6003 16.5121 32.829 16.1492 32.9275C14.7293 33.311 13.105 33.4201 11.9035 33.2125L11.6498 33.1703L11.6498 33.2759C11.6534 33.3357 11.6745 33.4307 11.6992 33.4905Z" fill="#2E5A14"/>
<path d="M11.9209 1.78399C13.3162 1.53769 15.2787 1.73825 16.8114 2.2766C17.1637 2.39975 17.2342 2.43494 17.2307 2.49124C17.2271 2.52994 17.206 2.71291 17.1849 2.89588C17.1179 3.43424 17.2271 3.94092 17.5548 4.60243C18.1327 5.77062 19.4046 6.97752 20.969 7.85718C22.8399 8.90574 24.9434 9.44409 26.7121 9.33149C27.7374 9.26464 28.5654 8.98315 29.1256 8.51165C31.1868 6.77695 28.9072 3.18089 24.6615 1.46731C23.3649 0.946552 22.1317 0.682654 20.8633 0.66506C20.2749 0.654504 20.215 0.647467 20.0177 0.566538C19.1544 0.19708 17.9107 3.5896e-05 16.4767 3.59586e-05C14.8489 3.60298e-05 13.4712 0.260416 12.5587 0.738952C12.0266 1.02044 11.6496 1.43213 11.6496 1.73825L11.6496 1.82973L11.9209 1.78399Z" fill="#2E5A14"/>
<path d="M24.9927 18.1139C25.0421 18.7051 25.2429 19.4193 25.5036 19.9401C25.7679 20.4714 25.937 20.7037 26.233 20.9535C27.0927 21.6818 27.896 22.1322 29.7141 22.9134C30.2602 23.1456 30.7922 23.3954 30.8944 23.4693C31.8316 24.1308 32.6279 25.1512 32.8604 25.9957C33.2762 27.5228 34.0831 29.0041 34.9357 29.824C35.348 30.2181 35.6333 30.4186 36.2464 30.7424C37.1273 31.2033 37.9553 31.4039 39.0052 31.4003C40.0023 31.4003 40.8761 31.1927 41.7218 30.7635C42.74 30.2427 43.6702 29.3279 44.1529 28.3743C44.3291 28.0224 44.7061 27.0865 44.7765 26.8226C44.8611 26.5059 44.8752 25.8585 44.8082 25.5383C44.7483 25.2673 44.4911 24.458 44.3502 24.1027C44.1952 23.7191 44.1106 23.5608 43.7935 23.0576C42.8211 21.527 42.3595 20.4433 42.1375 19.1695C42.0459 18.6276 42.053 17.4735 42.1587 16.9176C42.437 15.4116 42.9232 14.2751 44.0754 12.4524C44.6215 11.5903 44.8082 11.1751 44.9527 10.5136C45.0302 10.1618 45.0091 9.21174 44.9139 8.77543C44.6849 7.70224 44.2515 6.82962 43.5821 6.09422C42.1375 4.50379 39.9812 3.85988 37.772 4.35601C36.6551 4.60935 35.4149 5.3729 34.6961 6.24904C34.2522 6.79443 34.1852 6.93166 33.921 7.84651C33.5968 8.96192 33.4383 9.35249 33.0824 9.90844C32.6984 10.5101 32.1276 11.0907 31.5216 11.4918C31.0459 11.8085 30.9578 11.8472 29.0728 12.5896C27.7269 13.1174 27.4485 13.2406 27.2406 13.3919C25.6904 14.5073 24.8377 16.2983 24.9927 18.1139Z" fill="#2E5A14"/>
</svg>
