<svg width="45" height="35" viewBox="0 0 45 35" fill="none" xmlns="http://www.w3.org/2000/svg">
<path d="M44.9247 12.6741C44.8648 12.6636 43.5048 12.4736 41.9017 12.2554L38.9843 11.8543L38.5192 11.4707C38.262 11.2596 38.0048 11.0379 37.9449 10.9781C37.0922 10.109 35.4891 9.37363 33.7027 9.02528C31.9234 8.68045 29.8904 8.68749 28.1182 9.03935C26.0676 9.45104 24.401 10.3131 23.5871 11.3898C22.8613 12.3469 22.8331 13.413 23.5096 14.3596C24.4292 15.6509 26.4375 16.6009 28.999 16.9528C29.5451 17.0302 29.9679 17.0584 29.9679 17.0232C29.9679 17.0056 30.4013 16.9915 30.9298 16.9915C31.8671 16.9915 32.4237 16.9528 33.0967 16.8472C34.7985 16.5763 36.5426 15.9605 37.434 15.3061C37.9026 14.9683 38.4135 14.3912 38.632 13.9549C38.7024 13.8142 38.7447 13.7825 39.0477 13.6417L39.386 13.4799L40.8693 13.2758C41.6867 13.1632 42.9411 12.9908 43.6563 12.8923C44.3751 12.7938 44.974 12.7093 44.9952 12.7023C45.0128 12.6987 44.9811 12.6847 44.9247 12.6741Z" fill="#2E5A14"/>
<path d="M44.4665 22.7658C44.389 22.7517 43.2862 22.5371 42.0177 22.2873C40.7493 22.0374 39.3646 21.7665 38.9454 21.682L38.1808 21.5343L37.9659 21.2105C37.455 20.4364 36.5459 19.789 35.5171 19.4583C33.5863 18.8425 32.0888 18.5716 30.3835 18.5329C29.9008 18.5223 29.5097 18.4977 29.5097 18.4836C29.5097 18.4378 29.3441 18.4449 28.8227 18.5047C25.9194 18.839 23.6221 19.9825 22.8364 21.4744C22.477 22.1606 22.477 22.9769 22.8364 23.6595C23.4988 24.9227 25.2817 25.9642 27.5965 26.4393C29.2737 26.7876 31.3172 26.8122 33.0331 26.5061C34.8195 26.1894 36.4543 25.4751 37.381 24.6096C37.536 24.4618 37.8566 24.1838 38.0892 23.9938L38.512 23.6419L41.5069 23.2302C43.1523 23.0015 44.5229 22.8115 44.5546 22.8045C44.5828 22.7975 44.544 22.7834 44.4665 22.7658Z" fill="#2E5A14"/>
<path d="M33.3008 1.5095C32.9943 0.830402 31.7012 0.274455 29.9325 0.0633363C29.2278 -0.0211113 27.8114 -0.0211113 27.1314 0.0633362C26.24 0.175933 25.486 0.355384 24.9469 0.580578C24.732 0.675581 24.6791 0.682618 24.4712 0.661506C24.1753 0.633357 23.2698 0.700211 22.7272 0.791696C19.387 1.34764 16.068 3.63828 15.2893 5.92189C15.1131 6.43913 15.0708 6.80155 15.1413 7.21675C15.2259 7.70584 15.3844 8.01196 15.7473 8.37438C16.3252 8.94792 17.1602 9.2646 18.3018 9.33498C19.8133 9.42646 21.4517 9.08163 23.1323 8.31809C26.1307 6.95989 28.1637 4.52146 27.8079 2.72343C27.7762 2.57917 27.7656 2.44898 27.7762 2.43491C27.8149 2.39972 28.4879 2.17101 28.8508 2.07248C30.2707 1.68895 31.895 1.57987 33.0965 1.78747L33.3502 1.8297L33.3502 1.72414C33.3466 1.66432 33.3255 1.56932 33.3008 1.5095Z" fill="#2E5A14"/>
<path d="M33.0791 33.216C31.6838 33.4623 29.7213 33.2618 28.1886 32.7234C27.8363 32.6002 27.7658 32.5651 27.7693 32.5088C27.7729 32.4701 27.794 32.2871 27.8151 32.1041C27.8821 31.5658 27.7729 31.0591 27.4452 30.3976C26.8673 29.2294 25.5954 28.0225 24.031 27.1428C22.1601 26.0943 20.0566 25.5559 18.2879 25.6685C17.2626 25.7354 16.4346 26.0169 15.8744 26.4884C13.8132 28.223 16.0928 31.8191 20.3385 33.5327C21.6351 34.0534 22.8683 34.3173 24.1367 34.3349C24.7251 34.3455 24.785 34.3525 24.9823 34.4335C25.8456 34.8029 27.0893 35 28.5233 35C30.1511 35 31.5288 34.7396 32.4413 34.261C32.9734 33.9796 33.3504 33.5679 33.3504 33.2618L33.3504 33.1703L33.0791 33.216Z" fill="#2E5A14"/>
<path d="M20.0073 16.8861C19.9579 16.2949 19.7571 15.5807 19.4964 15.0599C19.2321 14.5286 19.063 14.2963 18.767 14.0465C17.9073 13.3182 17.104 12.8678 15.2859 12.0866C14.7398 11.8544 14.2078 11.6046 14.1056 11.5307C13.1684 10.8692 12.3721 9.84878 12.1396 9.0043C11.7238 7.47721 10.9169 5.99586 10.0643 5.17601C9.65204 4.78192 9.36665 4.58136 8.75358 4.25764C7.87274 3.7967 7.04474 3.59614 5.99477 3.59966C4.99765 3.59966 4.12385 3.80726 3.27824 4.23653C2.25998 4.75729 1.32981 5.67214 0.847104 6.62569C0.670935 6.97756 0.293933 7.91352 0.223465 8.17742C0.138904 8.4941 0.12481 9.14153 0.191755 9.46172C0.251652 9.73266 0.508859 10.542 0.649795 10.8973C0.804824 11.2809 0.889385 11.4392 1.20649 11.9424C2.17894 13.473 2.64051 14.5567 2.86248 15.8305C2.95409 16.3724 2.94704 17.5265 2.84134 18.0824C2.56299 19.5884 2.07677 20.7249 0.924618 22.5476C0.378493 23.4097 0.191754 23.8249 0.0472951 24.4864C-0.0302194 24.8382 -0.00907915 25.7883 0.0860522 26.2246C0.315072 27.2978 0.748449 28.1704 1.41789 28.9058C2.86248 30.4962 5.01879 31.1401 7.22795 30.644C8.34487 30.3907 9.5851 29.6271 10.3039 28.751C10.7478 28.2056 10.8148 28.0683 11.079 27.1535C11.4032 26.0381 11.5617 25.6475 11.9176 25.0916C12.3016 24.4899 12.8724 23.9093 13.4784 23.5082C13.9541 23.1915 14.0422 23.1528 15.9272 22.4104C17.2731 21.8826 17.5515 21.7594 17.7594 21.6081C19.3096 20.4927 20.1623 18.7017 20.0073 16.8861Z" fill="#2E5A14"/>
</svg>
